ffmpeg started on 2025-05-06 at 09:41:48
Report written to "D:\Convert\FFMetrics\reports\ssim_report-6.txt"
Log level: 32
Command line:
ffmpeg -hide_banner -nostdin -i "G:\\\xc0\xed\xe8\xec\xe5\\\xce\xed\xe3\xee\xe8\xed\xe3\xe8\\!_35_\xcb\xe5\xf2\xee_2024\\JamClub\\\xc1\xe0\xf1\xed\xff\\[JAM_CLUB]_The_Fable_10_[1080p][RUS][DUB]_HEVC.mkv" -i "G:\\\xc0\xed\xe8\xec\xe5\\\xce\xed\xe3\xee\xe8\xed\xe3\xe8\\!_35_\xcb\xe5\xf2\xee_2024\\JamClub\\\xc1\xe0\xf1\xed\xff\\[JAM_CLUB]_The_Fable_10_[1080p][RUS][DUB].mp4" -lavfi "[0:v]settb=AVTB,setpts=PTS-STARTPTS,format=pix_fmts=yuv420p10,fps=24000/1001,scale=1920:1080:flags=bicubic[main];[1:v]settb=AVTB,setpts=PTS-STARTPTS,format=pix_fmts=yuv420p,fps=24000/1001,scale=1920:1080:flags=bicubic[ref];[main][ref]ssim=eof_action=endall:stats_file='D\\:/Convert/FFMetrics/logs/ssim_logfile-6.txt'" -f null -
Input #0, matroska,webm, from 'G:\Аниме\Онгоинги\!_35_Лето_2024\JamClub\Басня\[JAM_CLUB]_The_Fable_10_[1080p][RUS][DUB]_HEVC.mkv':
  Metadata:
    COMPATIBLE_BRANDS: isomiso2avc1mp41
    MAJOR_BRAND     : isom
    MINOR_VERSION   : 512
    ENCODER         : Lavf61.7.100
  Duration: 00:23:14.33, start: -0.001000, bitrate: 838 kb/s
  Stream #0:0: Video: hevc (Main 10), yuv420p10le(tv, bt709, progressive), 1920x1080 [SAR 1:1 DAR 16:9], 23.98 fps, 23.98 tbr, 1k tbn (default)
      Metadata:
        HANDLER_NAME    : VideoHandler
        VENDOR_ID       : [0][0][0][0]
        ENCODER         : Lavc61.19.100 libx265
        BPS             : 638659
        DURATION        : 00:23:14.184708333
        NUMBER_OF_FRAMES: 33427
        NUMBER_OF_BYTES : 111301081
        _STATISTICS_WRITING_APP: mkvpropedit v66.0.0 ('Josie') 64-bit
        _STATISTICS_WRITING_DATE_UTC: 2025-05-05 13:51:25
        _STATISTICS_TAGS: BPS DURATION NUMBER_OF_FRAMES NUMBER_OF_BYTES
  Stream #0:1(eng): Audio: aac (LC), 48000 Hz, stereo, fltp (default)
      Metadata:
        HANDLER_NAME    : SoundHandler
        VENDOR_ID       : [0][0][0][0]
        ENCODER         : Lavc61.19.100 aac
        BPS             : 195476
        DURATION        : 00:23:14.285000000
        NUMBER_OF_FRAMES: 65358
        NUMBER_OF_BYTES : 34068763
        _STATISTICS_WRITING_APP: mkvpropedit v66.0.0 ('Josie') 64-bit
        _STATISTICS_WRITING_DATE_UTC: 2025-05-05 13:51:25
        _STATISTICS_TAGS: BPS DURATION NUMBER_OF_FRAMES NUMBER_OF_BYTES
Input #1, mov,mp4,m4a,3gp,3g2,mj2, from 'G:\Аниме\Онгоинги\!_35_Лето_2024\JamClub\Басня\[JAM_CLUB]_The_Fable_10_[1080p][RUS][DUB].mp4':
  Metadata:
    major_brand     : isom
    minor_version   : 512
    compatible_brands: isomiso2avc1mp41
    encoder         : Lavf60.16.100
  Duration: 00:23:14.31, start: 0.000000, bitrate: 3218 kb/s
  Stream #1:0[0x1](und): Video: h264 (High) (avc1 / 0x31637661), yuv420p(progressive), 1920x1080, 3021 kb/s, 23.98 fps, 23.98 tbr, 90k tbn (default)
      Metadata:
        handler_name    : VideoHandler
        vendor_id       : [0][0][0][0]
  Stream #1:1[0x2](eng): Audio: aac (LC) (mp4a / 0x6134706D), 48000 Hz, stereo, fltp, 191 kb/s (default)
      Metadata:
        handler_name    : SoundHandler
        vendor_id       : [0][0][0][0]
Stream mapping:
  Stream #0:0 (hevc) -> settb:default
  Stream #1:0 (h264) -> settb:default
  ssim:default -> Stream #0:0 (wrapped_avframe)
  Stream #0:1 -> #0:1 (aac (native) -> pcm_s16le (native))
Output #0, null, to 'pipe:':
  Metadata:
    COMPATIBLE_BRANDS: isomiso2avc1mp41
    MAJOR_BRAND     : isom
    MINOR_VERSION   : 512
    encoder         : Lavf61.7.100
  Stream #0:0: Video: wrapped_avframe, yuv420p10le(tv, bt709, progressive), 1920x1080 [SAR 1:1 DAR 16:9], q=2-31, 200 kb/s, 23.98 fps, 23.98 tbn
      Metadata:
        encoder         : Lavc61.19.100 wrapped_avframe
  Stream #0:1(eng): Audio: pcm_s16le, 48000 Hz, stereo, s16, 1536 kb/s (default)
      Metadata:
        HANDLER_NAME    : SoundHandler
        VENDOR_ID       : [0][0][0][0]
        _STATISTICS_TAGS: BPS DURATION NUMBER_OF_FRAMES NUMBER_OF_BYTES
        BPS             : 195476
        DURATION        : 00:23:14.285000000
        NUMBER_OF_FRAMES: 65358
        NUMBER_OF_BYTES : 34068763
        _STATISTICS_WRITING_APP: mkvpropedit v66.0.0 ('Josie') 64-bit
        _STATISTICS_WRITING_DATE_UTC: 2025-05-05 13:51:25
        encoder         : Lavc61.19.100 pcm_s16le
frame=  115 fps=0.0 q=-0.0 size=N/A time=00:00:04.79 bitrate=N/A speed=9.33x    frame=  277 fps=268 q=-0.0 size=N/A time=00:00:11.55 bitrate=N/A speed=11.2x    frame=  462 fps=300 q=-0.0 size=N/A time=00:00:19.26 bitrate=N/A speed=12.5x    frame=  698 fps=338 q=-0.0 size=N/A time=00:00:29.11 bitrate=N/A speed=14.1x    frame=  916 fps=357 q=-0.0 size=N/A time=00:00:38.20 bitrate=N/A speed=14.9x    frame= 1141 fps=370 q=-0.0 size=N/A time=00:00:47.58 bitrate=N/A speed=15.4x    frame= 1349 fps=374 q=-0.0 size=N/A time=00:00:56.26 bitrate=N/A speed=15.6x    frame= 1564 fps=380 q=-0.0 size=N/A time=00:01:05.23 bitrate=N/A speed=15.9x    frame= 1824 fps=393 q=-0.0 size=N/A time=00:01:16.07 bitrate=N/A speed=16.4x    frame= 2067 fps=402 q=-0.0 size=N/A time=00:01:26.21 bitrate=N/A speed=16.8x    frame= 2329 fps=411 q=-0.0 size=N/A time=00:01:37.13 bitrate=N/A speed=17.1x    frame= 2569 fps=415 q=-0.0 size=N/A time=00:01:47.14 bitrate=N/A speed=17.3x    frame= 2823 fps=422 q=-0.0 size=N/A time=00:01:57.74 bitrate=N/A speed=17.6x    frame= 3114 fps=431 q=-0.0 size=N/A time=00:02:09.87 bitrate=N/A speed=  18x    frame= 3387 fps=438 q=-0.0 size=N/A time=00:02:21.26 bitrate=N/A speed=18.3x    frame= 3647 fps=443 q=-0.0 size=N/A time=00:02:32.11 bitrate=N/A speed=18.5x    frame= 3938 fps=450 q=-0.0 size=N/A time=00:02:44.24 bitrate=N/A speed=18.7x    frame= 4223 fps=455 q=-0.0 size=N/A time=00:02:56.13 bitrate=N/A speed=  19x    frame= 4514 fps=460 q=-0.0 size=N/A time=00:03:08.27 bitrate=N/A speed=19.2x    frame= 4776 fps=462 q=-0.0 size=N/A time=00:03:19.19 bitrate=N/A speed=19.3x    frame= 5037 fps=464 q=-0.0 size=N/A time=00:03:30.08 bitrate=N/A speed=19.4x    frame= 5313 fps=468 q=-0.0 size=N/A time=00:03:41.59 bitrate=N/A speed=19.5x    frame= 5580 fps=469 q=-0.0 size=N/A time=00:03:52.73 bitrate=N/A speed=19.6x    frame= 5830 fps=470 q=-0.0 size=N/A time=00:04:03.15 bitrate=N/A speed=19.6x    frame= 6104 fps=473 q=-0.0 size=N/A time=00:04:14.58 bitrate=N/A speed=19.7x    frame= 6372 fps=474 q=-0.0 size=N/A time=00:04:25.76 bitrate=N/A speed=19.8x    frame= 6634 fps=476 q=-0.0 size=N/A time=00:04:36.69 bitrate=N/A speed=19.8x    frame= 6894 fps=477 q=-0.0 size=N/A time=00:04:47.53 bitrate=N/A speed=19.9x    frame= 7164 fps=478 q=-0.0 size=N/A time=00:04:58.79 bitrate=N/A speed=19.9x    frame= 7425 fps=479 q=-0.0 size=N/A time=00:05:09.68 bitrate=N/A speed=  20x    frame= 7686 fps=480 q=-0.0 size=N/A time=00:05:20.57 bitrate=N/A speed=  20x    frame= 7958 fps=481 q=-0.0 size=N/A time=00:05:31.91 bitrate=N/A speed=20.1x    frame= 8224 fps=483 q=-0.0 size=N/A time=00:05:43.00 bitrate=N/A speed=20.1x    frame= 8505 fps=484 q=-0.0 size=N/A time=00:05:54.72 bitrate=N/A speed=20.2x    frame= 8756 fps=485 q=-0.0 size=N/A time=00:06:05.19 bitrate=N/A speed=20.2x    frame= 9033 fps=486 q=-0.0 size=N/A time=00:06:16.75 bitrate=N/A speed=20.3x    frame= 9306 fps=487 q=-0.0 size=N/A time=00:06:28.13 bitrate=N/A speed=20.3x    frame= 9562 fps=487 q=-0.0 size=N/A time=00:06:38.81 bitrate=N/A speed=20.3x    frame= 9830 fps=488 q=-0.0 size=N/A time=00:06:49.99 bitrate=N/A speed=20.4x    frame=10098 fps=489 q=-0.0 size=N/A time=00:07:01.17 bitrate=N/A speed=20.4x    frame=10368 fps=490 q=-0.0 size=N/A time=00:07:12.43 bitrate=N/A speed=20.4x    frame=10626 fps=490 q=-0.0 size=N/A time=00:07:23.19 bitrate=N/A speed=20.4x    frame=10895 fps=491 q=-0.0 size=N/A time=00:07:34.41 bitrate=N/A speed=20.5x    frame=11168 fps=492 q=-0.0 size=N/A time=00:07:45.79 bitrate=N/A speed=20.5x    frame=11454 fps=493 q=-0.0 size=N/A time=00:07:57.72 bitrate=N/A speed=20.6x    frame=11736 fps=494 q=-0.0 size=N/A time=00:08:09.48 bitrate=N/A speed=20.6x    frame=12015 fps=495 q=-0.0 size=N/A time=00:08:21.12 bitrate=N/A speed=20.7x    frame=12295 fps=496 q=-0.0 size=N/A time=00:08:32.80 bitrate=N/A speed=20.7x    frame=12580 fps=497 q=-0.0 size=N/A time=00:08:44.69 bitrate=N/A speed=20.7x    frame=12845 fps=498 q=-0.0 size=N/A time=00:08:55.74 bitrate=N/A speed=20.8x    frame=13111 fps=498 q=-0.0 size=N/A time=00:09:06.83 bitrate=N/A speed=20.8x    frame=13382 fps=499 q=-0.0 size=N/A time=00:09:18.14 bitrate=N/A speed=20.8x    frame=13659 fps=499 q=-0.0 size=N/A time=00:09:29.69 bitrate=N/A speed=20.8x    frame=13954 fps=501 q=-0.0 size=N/A time=00:09:41.99 bitrate=N/A speed=20.9x    frame=14203 fps=500 q=-0.0 size=N/A time=00:09:52.38 bitrate=N/A speed=20.9x    frame=14482 fps=501 q=-0.0 size=N/A time=00:10:04.02 bitrate=N/A speed=20.9x    frame=14751 fps=501 q=-0.0 size=N/A time=00:10:15.23 bitrate=N/A speed=20.9x    frame=15008 fps=501 q=-0.0 size=N/A time=00:10:25.95 bitrate=N/A speed=20.9x    frame=15292 fps=502 q=-0.0 size=N/A time=00:10:37.80 bitrate=N/A speed=20.9x    frame=15569 fps=503 q=-0.0 size=N/A time=00:10:49.35 bitrate=N/A speed=  21x    frame=15821 fps=503 q=-0.0 size=N/A time=00:10:59.86 bitrate=N/A speed=  21x    frame=16101 fps=503 q=-0.0 size=N/A time=00:11:11.54 bitrate=N/A speed=  21x    frame=16372 fps=503 q=-0.0 size=N/A time=00:11:22.84 bitrate=N/A speed=  21x    frame=16636 fps=504 q=-0.0 size=N/A time=00:11:33.85 bitrate=N/A speed=  21x    frame=16916 fps=504 q=-0.0 size=N/A time=00:11:45.53 bitrate=N/A speed=  21x    frame=17184 fps=505 q=-0.0 size=N/A time=00:11:56.71 bitrate=N/A speed=  21x    frame=17455 fps=505 q=-0.0 size=N/A time=00:12:08.01 bitrate=N/A speed=21.1x    frame=17723 fps=505 q=-0.0 size=N/A time=00:12:19.19 bitrate=N/A speed=21.1x    frame=17978 fps=505 q=-0.0 size=N/A time=00:12:29.83 bitrate=N/A speed=21.1x    frame=18234 fps=505 q=-0.0 size=N/A time=00:12:40.50 bitrate=N/A speed=21.1x    frame=18506 fps=505 q=-0.0 size=N/A time=00:12:51.85 bitrate=N/A speed=21.1x    frame=18742 fps=504 q=-0.0 size=N/A time=00:13:01.69 bitrate=N/A speed=  21x    frame=18994 fps=504 q=-0.0 size=N/A time=00:13:12.20 bitrate=N/A speed=  21x    frame=19259 fps=504 q=-0.0 size=N/A time=00:13:23.26 bitrate=N/A speed=  21x    frame=19546 fps=505 q=-0.0 size=N/A time=00:13:35.23 bitrate=N/A speed=21.1x    frame=19825 fps=506 q=-0.0 size=N/A time=00:13:46.86 bitrate=N/A speed=21.1x    frame=20100 fps=506 q=-0.0 size=N/A time=00:13:58.33 bitrate=N/A speed=21.1x    frame=20377 fps=506 q=-0.0 size=N/A time=00:14:09.89 bitrate=N/A speed=21.1x    frame=20616 fps=506 q=-0.0 size=N/A time=00:14:19.85 bitrate=N/A speed=21.1x    frame=20869 fps=506 q=-0.0 size=N/A time=00:14:30.41 bitrate=N/A speed=21.1x    frame=21144 fps=506 q=-0.0 size=N/A time=00:14:41.88 bitrate=N/A speed=21.1x    frame=21425 fps=506 q=-0.0 size=N/A time=00:14:53.60 bitrate=N/A speed=21.1x    frame=21702 fps=507 q=-0.0 size=N/A time=00:15:05.15 bitrate=N/A speed=21.1x    frame=21984 fps=507 q=-0.0 size=N/A time=00:15:16.91 bitrate=N/A speed=21.2x    frame=22249 fps=507 q=-0.0 size=N/A time=00:15:27.96 bitrate=N/A speed=21.2x    frame=22503 fps=507 q=-0.0 size=N/A time=00:15:38.56 bitrate=N/A speed=21.2x    frame=22713 fps=506 q=-0.0 size=N/A time=00:15:47.32 bitrate=N/A speed=21.1x    frame=22976 fps=506 q=-0.0 size=N/A time=00:15:58.29 bitrate=N/A speed=21.1x    frame=23245 fps=506 q=-0.0 size=N/A time=00:16:09.51 bitrate=N/A speed=21.1x    frame=23521 fps=507 q=-0.0 size=N/A time=00:16:21.02 bitrate=N/A speed=21.1x    frame=23777 fps=506 q=-0.0 size=N/A time=00:16:31.69 bitrate=N/A speed=21.1x    frame=24033 fps=506 q=-0.0 size=N/A time=00:16:42.37 bitrate=N/A speed=21.1x    frame=24299 fps=506 q=-0.0 size=N/A time=00:16:53.47 bitrate=N/A speed=21.1x    frame=24571 fps=506 q=-0.0 size=N/A time=00:17:04.81 bitrate=N/A speed=21.1x    frame=24827 fps=506 q=-0.0 size=N/A time=00:17:15.49 bitrate=N/A speed=21.1x    frame=25082 fps=506 q=-0.0 size=N/A time=00:17:26.12 bitrate=N/A speed=21.1x    frame=25337 fps=506 q=-0.0 size=N/A time=00:17:36.76 bitrate=N/A speed=21.1x    frame=25605 fps=506 q=-0.0 size=N/A time=00:17:47.94 bitrate=N/A speed=21.1x    frame=25870 fps=506 q=-0.0 size=N/A time=00:17:58.99 bitrate=N/A speed=21.1x    frame=26138 fps=506 q=-0.0 size=N/A time=00:18:10.21 bitrate=N/A speed=21.1x    frame=26412 fps=507 q=-0.0 size=N/A time=00:18:21.60 bitrate=N/A speed=21.1x    frame=26675 fps=507 q=-0.0 size=N/A time=00:18:32.56 bitrate=N/A speed=21.1x    frame=26925 fps=506 q=-0.0 size=N/A time=00:18:42.99 bitrate=N/A speed=21.1x    frame=27194 fps=507 q=-0.0 size=N/A time=00:18:54.21 bitrate=N/A speed=21.1x    frame=27458 fps=507 q=-0.0 size=N/A time=00:19:05.22 bitrate=N/A speed=21.1x    frame=27730 fps=507 q=-0.0 size=N/A time=00:19:16.57 bitrate=N/A speed=21.1x    frame=27988 fps=507 q=-0.0 size=N/A time=00:19:27.33 bitrate=N/A speed=21.1x    frame=28258 fps=507 q=-0.0 size=N/A time=00:19:38.59 bitrate=N/A speed=21.1x    frame=28526 fps=507 q=-0.0 size=N/A time=00:19:49.77 bitrate=N/A speed=21.1x    frame=28776 fps=507 q=-0.0 size=N/A time=00:20:00.19 bitrate=N/A speed=21.1x    frame=29054 fps=507 q=-0.0 size=N/A time=00:20:11.79 bitrate=N/A speed=21.2x    frame=29331 fps=507 q=-0.0 size=N/A time=00:20:23.34 bitrate=N/A speed=21.2x    frame=29595 fps=507 q=-0.0 size=N/A time=00:20:34.35 bitrate=N/A speed=21.2x    frame=29878 fps=508 q=-0.0 size=N/A time=00:20:46.16 bitrate=N/A speed=21.2x    frame=30132 fps=508 q=-0.0 size=N/A time=00:20:56.75 bitrate=N/A speed=21.2x    frame=30400 fps=508 q=-0.0 size=N/A time=00:21:07.93 bitrate=N/A speed=21.2x    frame=30682 fps=508 q=-0.0 size=N/A time=00:21:19.69 bitrate=N/A speed=21.2x    frame=30942 fps=508 q=-0.0 size=N/A time=00:21:30.53 bitrate=N/A speed=21.2x    frame=31198 fps=508 q=-0.0 size=N/A time=00:21:41.21 bitrate=N/A speed=21.2x    frame=31375 fps=507 q=-0.0 size=N/A time=00:21:48.59 bitrate=N/A speed=21.1x    frame=31535 fps=505 q=-0.0 size=N/A time=00:21:55.27 bitrate=N/A speed=21.1x    frame=31679 fps=503 q=-0.0 size=N/A time=00:22:01.27 bitrate=N/A speed=  21x    frame=31835 fps=502 q=-0.0 size=N/A time=00:22:07.78 bitrate=N/A speed=20.9x    frame=31999 fps=500 q=-0.0 size=N/A time=00:22:14.62 bitrate=N/A speed=20.9x    frame=32152 fps=498 q=-0.0 size=N/A time=00:22:21.00 bitrate=N/A speed=20.8x    frame=32298 fps=497 q=-0.0 size=N/A time=00:22:27.09 bitrate=N/A speed=20.7x    frame=32433 fps=495 q=-0.0 size=N/A time=00:22:32.72 bitrate=N/A speed=20.6x    frame=32570 fps=493 q=-0.0 size=N/A time=00:22:38.44 bitrate=N/A speed=20.6x    frame=32700 fps=491 q=-0.0 size=N/A time=00:22:43.86 bitrate=N/A speed=20.5x    frame=32904 fps=490 q=-0.0 size=N/A time=00:22:52.37 bitrate=N/A speed=20.5x    frame=33125 fps=490 q=-0.0 size=N/A time=00:23:01.58 bitrate=N/A speed=20.4x    frame=33332 fps=489 q=-0.0 size=N/A time=00:23:10.22 bitrate=N/A speed=20.4x    [Parsed_ssim_10 @ 0000020a26eabd40] SSIM Y:0.993210 (21.681455) U:0.995319 (23.296941) V:0.995416 (23.387837) All:0.993929 (22.167709)
[out#0/null @ 0000020a1aae06c0] video:14363KiB audio:261432KiB subtitle:0KiB other streams:0KiB global headers:0KiB muxing overhead: unknown
frame=33427 fps=490 q=-0.0 Lsize=N/A time=00:23:14.18 bitrate=N/A speed=20.4x    
